<mxfile host="Electron" modified="2025-07-03T22:27:05.663Z" agent="Mozilla/5.0 (Windows NT 10.0; Win64; x64) AppleWebKit/537.36 (KHTML, like Gecko) draw.io/24.0.4 Chrome/120.0.6099.109 Electron/28.1.0 Safari/537.36" etag="Awd8Z7ltgOAArVFZwqba" version="24.0.4" type="device">
  <diagram name="Page-1" id="pFKBm3lO-p7k9A1rdsKB">
    <mxGraphModel dx="1823" dy="866" grid="1" gridSize="10" guides="1" tooltips="1" connect="1" arrows="1" fold="1" page="1" pageScale="1" pageWidth="850" pageHeight="1100" math="0" shadow="0">
      <root>
        <mxCell id="0" />
        <mxCell id="1" parent="0" />
        <mxCell id="K1-594JRgutzTSdrBtt9-1" value="end" style="ellipse;whiteSpace=wrap;html=1;" vertex="1" parent="1">
          <mxGeometry x="590" y="710" width="120" height="80" as="geometry" />
        </mxCell>
        <mxCell id="K1-594JRgutzTSdrBtt9-4" style="edgeStyle=orthogonalEdgeStyle;rounded=0;orthogonalLoop=1;jettySize=auto;html=1;entryX=0;entryY=0.5;entryDx=0;entryDy=0;" edge="1" parent="1" source="K1-594JRgutzTSdrBtt9-2" target="K1-594JRgutzTSdrBtt9-3">
          <mxGeometry relative="1" as="geometry" />
        </mxCell>
        <mxCell id="K1-594JRgutzTSdrBtt9-2" value="start" style="ellipse;whiteSpace=wrap;html=1;" vertex="1" parent="1">
          <mxGeometry x="60" y="20" width="120" height="80" as="geometry" />
        </mxCell>
        <mxCell id="K1-594JRgutzTSdrBtt9-6" value="" style="edgeStyle=orthogonalEdgeStyle;rounded=0;orthogonalLoop=1;jettySize=auto;html=1;entryX=0.5;entryY=0;entryDx=0;entryDy=0;" edge="1" parent="1" source="K1-594JRgutzTSdrBtt9-3" target="K1-594JRgutzTSdrBtt9-5">
          <mxGeometry relative="1" as="geometry" />
        </mxCell>
        <mxCell id="K1-594JRgutzTSdrBtt9-3" value="fetch request and id" style="rounded=0;whiteSpace=wrap;html=1;" vertex="1" parent="1">
          <mxGeometry x="250" y="50" width="120" height="60" as="geometry" />
        </mxCell>
        <mxCell id="K1-594JRgutzTSdrBtt9-41" value="no" style="edgeStyle=orthogonalEdgeStyle;rounded=0;orthogonalLoop=1;jettySize=auto;html=1;exitX=0;exitY=0.5;exitDx=0;exitDy=0;" edge="1" parent="1" source="K1-594JRgutzTSdrBtt9-5" target="K1-594JRgutzTSdrBtt9-40">
          <mxGeometry relative="1" as="geometry">
            <Array as="points">
              <mxPoint x="440" y="100" />
              <mxPoint x="440" y="130" />
              <mxPoint x="260" y="130" />
            </Array>
          </mxGeometry>
        </mxCell>
        <mxCell id="K1-594JRgutzTSdrBtt9-45" value="yes" style="edgeStyle=orthogonalEdgeStyle;rounded=0;orthogonalLoop=1;jettySize=auto;html=1;entryX=0;entryY=0.5;entryDx=0;entryDy=0;" edge="1" parent="1" source="K1-594JRgutzTSdrBtt9-5" target="K1-594JRgutzTSdrBtt9-44">
          <mxGeometry relative="1" as="geometry" />
        </mxCell>
        <mxCell id="K1-594JRgutzTSdrBtt9-5" value="logged in&amp;nbsp;" style="rhombus;whiteSpace=wrap;html=1;rounded=0;" vertex="1" parent="1">
          <mxGeometry x="450" y="60" width="80" height="80" as="geometry" />
        </mxCell>
        <mxCell id="K1-594JRgutzTSdrBtt9-12" value="yes" style="edgeStyle=orthogonalEdgeStyle;rounded=0;orthogonalLoop=1;jettySize=auto;html=1;" edge="1" parent="1" source="K1-594JRgutzTSdrBtt9-9" target="K1-594JRgutzTSdrBtt9-11">
          <mxGeometry relative="1" as="geometry" />
        </mxCell>
        <mxCell id="K1-594JRgutzTSdrBtt9-14" value="no" style="edgeStyle=orthogonalEdgeStyle;rounded=0;orthogonalLoop=1;jettySize=auto;html=1;" edge="1" parent="1" source="K1-594JRgutzTSdrBtt9-9" target="K1-594JRgutzTSdrBtt9-13">
          <mxGeometry relative="1" as="geometry" />
        </mxCell>
        <mxCell id="K1-594JRgutzTSdrBtt9-9" value="user is not the post author" style="rhombus;whiteSpace=wrap;html=1;rounded=0;" vertex="1" parent="1">
          <mxGeometry x="590" y="90" width="80" height="80" as="geometry" />
        </mxCell>
        <mxCell id="K1-594JRgutzTSdrBtt9-11" value="redirect to blogs page" style="whiteSpace=wrap;html=1;rounded=0;" vertex="1" parent="1">
          <mxGeometry x="680" y="180" width="120" height="60" as="geometry" />
        </mxCell>
        <mxCell id="K1-594JRgutzTSdrBtt9-16" value="yes" style="edgeStyle=orthogonalEdgeStyle;rounded=0;orthogonalLoop=1;jettySize=auto;html=1;entryX=0.5;entryY=0;entryDx=0;entryDy=0;" edge="1" parent="1" source="K1-594JRgutzTSdrBtt9-13" target="K1-594JRgutzTSdrBtt9-15">
          <mxGeometry relative="1" as="geometry" />
        </mxCell>
        <mxCell id="K1-594JRgutzTSdrBtt9-36" value="" style="edgeStyle=orthogonalEdgeStyle;rounded=0;orthogonalLoop=1;jettySize=auto;html=1;entryX=0.5;entryY=0;entryDx=0;entryDy=0;" edge="1" parent="1" source="K1-594JRgutzTSdrBtt9-13" target="K1-594JRgutzTSdrBtt9-35">
          <mxGeometry relative="1" as="geometry">
            <Array as="points">
              <mxPoint x="620" y="230" />
              <mxPoint x="620" y="300" />
              <mxPoint x="710" y="300" />
              <mxPoint x="710" y="470" />
              <mxPoint x="770" y="470" />
            </Array>
          </mxGeometry>
        </mxCell>
        <mxCell id="K1-594JRgutzTSdrBtt9-13" value="request is post" style="rhombus;whiteSpace=wrap;html=1;rounded=0;" vertex="1" parent="1">
          <mxGeometry x="530" y="190" width="80" height="80" as="geometry" />
        </mxCell>
        <mxCell id="K1-594JRgutzTSdrBtt9-18" value="" style="edgeStyle=orthogonalEdgeStyle;rounded=0;orthogonalLoop=1;jettySize=auto;html=1;entryX=0.5;entryY=0;entryDx=0;entryDy=0;exitX=1;exitY=0.5;exitDx=0;exitDy=0;" edge="1" parent="1" source="K1-594JRgutzTSdrBtt9-15" target="K1-594JRgutzTSdrBtt9-17">
          <mxGeometry relative="1" as="geometry">
            <Array as="points">
              <mxPoint x="505" y="350" />
            </Array>
          </mxGeometry>
        </mxCell>
        <mxCell id="K1-594JRgutzTSdrBtt9-32" style="edgeStyle=orthogonalEdgeStyle;rounded=0;orthogonalLoop=1;jettySize=auto;html=1;" edge="1" parent="1" source="K1-594JRgutzTSdrBtt9-15" target="K1-594JRgutzTSdrBtt9-33">
          <mxGeometry relative="1" as="geometry">
            <mxPoint x="120" y="490" as="targetPoint" />
          </mxGeometry>
        </mxCell>
        <mxCell id="K1-594JRgutzTSdrBtt9-15" value="post has title and contetn" style="rhombus;whiteSpace=wrap;html=1;rounded=0;" vertex="1" parent="1">
          <mxGeometry x="340" y="310" width="80" height="80" as="geometry" />
        </mxCell>
        <mxCell id="K1-594JRgutzTSdrBtt9-20" value="" style="edgeStyle=orthogonalEdgeStyle;rounded=0;orthogonalLoop=1;jettySize=auto;html=1;" edge="1" parent="1" source="K1-594JRgutzTSdrBtt9-17" target="K1-594JRgutzTSdrBtt9-19">
          <mxGeometry relative="1" as="geometry" />
        </mxCell>
        <mxCell id="K1-594JRgutzTSdrBtt9-22" value="" style="edgeStyle=orthogonalEdgeStyle;rounded=0;orthogonalLoop=1;jettySize=auto;html=1;entryX=0.5;entryY=0;entryDx=0;entryDy=0;" edge="1" parent="1" source="K1-594JRgutzTSdrBtt9-17" target="K1-594JRgutzTSdrBtt9-21">
          <mxGeometry relative="1" as="geometry" />
        </mxCell>
        <mxCell id="K1-594JRgutzTSdrBtt9-17" value="remove image is requested" style="rhombus;whiteSpace=wrap;html=1;rounded=0;" vertex="1" parent="1">
          <mxGeometry x="390" y="390" width="110" height="90" as="geometry" />
        </mxCell>
        <mxCell id="K1-594JRgutzTSdrBtt9-27" style="edgeStyle=orthogonalEdgeStyle;rounded=0;orthogonalLoop=1;jettySize=auto;html=1;entryX=0.5;entryY=0;entryDx=0;entryDy=0;" edge="1" parent="1" source="K1-594JRgutzTSdrBtt9-19" target="K1-594JRgutzTSdrBtt9-25">
          <mxGeometry relative="1" as="geometry">
            <Array as="points">
              <mxPoint x="640" y="510" />
              <mxPoint x="480" y="510" />
            </Array>
          </mxGeometry>
        </mxCell>
        <mxCell id="K1-594JRgutzTSdrBtt9-19" value="remove image" style="whiteSpace=wrap;html=1;rounded=0;" vertex="1" parent="1">
          <mxGeometry x="575" y="405" width="120" height="60" as="geometry" />
        </mxCell>
        <mxCell id="K1-594JRgutzTSdrBtt9-24" value="yes" style="edgeStyle=orthogonalEdgeStyle;rounded=0;orthogonalLoop=1;jettySize=auto;html=1;exitX=1;exitY=0.5;exitDx=0;exitDy=0;" edge="1" parent="1" source="K1-594JRgutzTSdrBtt9-21" target="K1-594JRgutzTSdrBtt9-23">
          <mxGeometry relative="1" as="geometry" />
        </mxCell>
        <mxCell id="K1-594JRgutzTSdrBtt9-31" value="no" style="edgeStyle=orthogonalEdgeStyle;rounded=0;orthogonalLoop=1;jettySize=auto;html=1;exitX=0;exitY=0.5;exitDx=0;exitDy=0;entryX=0.5;entryY=0;entryDx=0;entryDy=0;" edge="1" parent="1" source="K1-594JRgutzTSdrBtt9-21" target="K1-594JRgutzTSdrBtt9-25">
          <mxGeometry relative="1" as="geometry">
            <Array as="points">
              <mxPoint x="180" y="435" />
              <mxPoint x="180" y="600" />
              <mxPoint x="480" y="600" />
            </Array>
          </mxGeometry>
        </mxCell>
        <mxCell id="K1-594JRgutzTSdrBtt9-21" value="image is in the request" style="rhombus;whiteSpace=wrap;html=1;rounded=0;" vertex="1" parent="1">
          <mxGeometry x="200" y="390" width="110" height="90" as="geometry" />
        </mxCell>
        <mxCell id="K1-594JRgutzTSdrBtt9-28" style="edgeStyle=orthogonalEdgeStyle;rounded=0;orthogonalLoop=1;jettySize=auto;html=1;" edge="1" parent="1" source="K1-594JRgutzTSdrBtt9-23" target="K1-594JRgutzTSdrBtt9-25">
          <mxGeometry relative="1" as="geometry" />
        </mxCell>
        <mxCell id="K1-594JRgutzTSdrBtt9-23" value="change post&#39;s image" style="whiteSpace=wrap;html=1;rounded=0;" vertex="1" parent="1">
          <mxGeometry x="195" y="520" width="120" height="60" as="geometry" />
        </mxCell>
        <mxCell id="K1-594JRgutzTSdrBtt9-38" style="edgeStyle=orthogonalEdgeStyle;rounded=0;orthogonalLoop=1;jettySize=auto;html=1;exitX=1;exitY=0.5;exitDx=0;exitDy=0;" edge="1" parent="1" source="K1-594JRgutzTSdrBtt9-25">
          <mxGeometry relative="1" as="geometry">
            <mxPoint x="650" y="710" as="targetPoint" />
          </mxGeometry>
        </mxCell>
        <mxCell id="K1-594JRgutzTSdrBtt9-25" value="save post" style="rounded=0;whiteSpace=wrap;html=1;" vertex="1" parent="1">
          <mxGeometry x="420" y="640" width="120" height="60" as="geometry" />
        </mxCell>
        <mxCell id="K1-594JRgutzTSdrBtt9-39" style="edgeStyle=orthogonalEdgeStyle;rounded=0;orthogonalLoop=1;jettySize=auto;html=1;exitX=1;exitY=0.5;exitDx=0;exitDy=0;" edge="1" parent="1" source="K1-594JRgutzTSdrBtt9-33" target="K1-594JRgutzTSdrBtt9-1">
          <mxGeometry relative="1" as="geometry" />
        </mxCell>
        <mxCell id="K1-594JRgutzTSdrBtt9-33" value="redirect to post detail page" style="rounded=0;whiteSpace=wrap;html=1;" vertex="1" parent="1">
          <mxGeometry x="110" y="730" width="120" height="60" as="geometry" />
        </mxCell>
        <mxCell id="K1-594JRgutzTSdrBtt9-37" style="edgeStyle=orthogonalEdgeStyle;rounded=0;orthogonalLoop=1;jettySize=auto;html=1;exitX=0.5;exitY=1;exitDx=0;exitDy=0;entryX=0.5;entryY=0;entryDx=0;entryDy=0;" edge="1" parent="1" source="K1-594JRgutzTSdrBtt9-35" target="K1-594JRgutzTSdrBtt9-1">
          <mxGeometry relative="1" as="geometry" />
        </mxCell>
        <mxCell id="K1-594JRgutzTSdrBtt9-35" value="render edit post page" style="whiteSpace=wrap;html=1;rounded=0;" vertex="1" parent="1">
          <mxGeometry x="710" y="500" width="120" height="60" as="geometry" />
        </mxCell>
        <mxCell id="K1-594JRgutzTSdrBtt9-43" value="" style="edgeStyle=orthogonalEdgeStyle;rounded=0;orthogonalLoop=1;jettySize=auto;html=1;entryX=0.5;entryY=0;entryDx=0;entryDy=0;" edge="1" parent="1" source="K1-594JRgutzTSdrBtt9-40" target="K1-594JRgutzTSdrBtt9-42">
          <mxGeometry relative="1" as="geometry" />
        </mxCell>
        <mxCell id="K1-594JRgutzTSdrBtt9-40" value="redirect to login page" style="whiteSpace=wrap;html=1;rounded=0;" vertex="1" parent="1">
          <mxGeometry x="200" y="150" width="120" height="60" as="geometry" />
        </mxCell>
        <mxCell id="K1-594JRgutzTSdrBtt9-42" value="end" style="ellipse;whiteSpace=wrap;html=1;rounded=0;" vertex="1" parent="1">
          <mxGeometry x="10" y="200" width="110" height="80" as="geometry" />
        </mxCell>
        <mxCell id="K1-594JRgutzTSdrBtt9-47" style="edgeStyle=orthogonalEdgeStyle;rounded=0;orthogonalLoop=1;jettySize=auto;html=1;exitX=0.5;exitY=1;exitDx=0;exitDy=0;entryX=0.5;entryY=0;entryDx=0;entryDy=0;" edge="1" parent="1" source="K1-594JRgutzTSdrBtt9-44" target="K1-594JRgutzTSdrBtt9-9">
          <mxGeometry relative="1" as="geometry">
            <Array as="points">
              <mxPoint x="720" y="100" />
              <mxPoint x="650" y="100" />
              <mxPoint x="650" y="70" />
              <mxPoint x="630" y="70" />
            </Array>
          </mxGeometry>
        </mxCell>
        <mxCell id="K1-594JRgutzTSdrBtt9-44" value="get the number of unread messages" style="rounded=0;whiteSpace=wrap;html=1;" vertex="1" parent="1">
          <mxGeometry x="660" y="30" width="120" height="60" as="geometry" />
        </mxCell>
      </root>
    </mxGraphModel>
  </diagram>
</mxfile>
